{"title":"The Woman In The Window (1944) Reuped dvd rip Edward G. Robinson","uid":6147947,"size":960620847,"categoryP":"video","categoryS":"movies","magnet":"?xt=urn:btih:255e31dcae6cce83f7b42b192902bbf8c24046dd&amp;dn=The+Woman+In+The+Window+%281944%29+Reuped+dvd+rip+Edward+G.+Robinson&amp;tr=udp%3A%2F%2Ftracker.openbittorrent.com%3A80&amp;tr=udp%3A%2F%2Fopen.demonii.com%3A1337&amp;tr=udp%3A%2F%2Ftracker.coppersurfer.tk%3A6969&amp;tr=udp%3A%2F%2Fexodus.desync.com%3A6969","seeders":8,"leechers":3,"uploader":"classicman","files":1,"time":1296762337,"description":"Gotham College professor Wanley and his friends become obsessed with the portrait of a woman in the window next to the men's club. Wanley happens to meet the woman while admiring her portrait, and ends up in her apartment for talk and a bit of champagne. Her boyfriend bursts in and misinterprets Wanley's presence, whereupon a scuffle ensues and the boyfriend gets killed. In order to protect his reputation, the professor agrees to dump the body and help cover up the killing, but becomes increasingly suspect as the police uncover more and more clues and a blackmailer begins leaning on the woman.\n\n\nFormat                           : MPEG-4\nFormat profile                   : Base Media / Version 2\nCodec ID                         : mp42\nFile size                        : 916 MiB\nDuration                         : 1h 39mn\nOverall bit rate                 : 1 289 Kbps\nEncoded date                     : UTC 2011-01-28 06:47:26\nTagged date                      : UTC 2011-01-28 18:32:47\n\nVideo\nID                               : 1\nFormat                           : AVC\nFormat/Info                      : Advanced Video Codec\nFormat profile                   : &lt;a class=&quot;__cf_email__&quot; href=&quot;/cdn-cgi/l/email-protection&quot; data-cfemail=&quot;612c00080f212d524f51&quot;&gt;[email&amp;#160;protected]&lt;/a&gt;&lt;script cf-hash='f9e31' type=&quot;text/javascript&quot;&gt;\n/* &lt;![CDATA[ */!function(){try{var t=&quot;currentScript&quot;in document?document.currentScript:function(){for(var t=document.getElementsByTagName(&quot;script&quot;),e=t.length;e--;)if(t[e].getAttribute(&quot;cf-hash&quot;))return t[e]}();if(t&amp;&amp;t.previousSibling){var e,r,n,i,c=t.previousSibling,a=c.getAttribute(&quot;data-cfemail&quot;);if(a){for(e=&quot;&quot;,r=parseInt(a.substr(0,2),16),n=2;a.length-n;n+=2)i=parseInt(a.substr(n,2),16)^r,e+=String.fromCharCode(i);e=document.createTextNode(e),c.parentNode.replaceChild(e,c)}}}catch(u){}}();/* ]]&gt; */&lt;/script&gt;\nFormat settings, CABAC           : Yes\nFormat settings, ReFrames        : 2 frames\nCodec ID                         : avc1\nCodec ID/Info                    : Advanced Video Coding\nDuration                         : 1h 39mn\nBit rate mode                    : Variable\nBit rate                         : 1 160 Kbps\nMaximum bit rate                 : 4 110 Kbps\nWidth                            : 720 pixels\nHeight                           : 480 pixels\nDisplay aspect ratio             : 4:3\nFrame rate mode                  : Constant\nFrame rate                       : 23.976 fps\nStandard                         : NTSC\nResolution                       : 24 bits\nColorimetry                      : 4:2:0\nScan type                        : Progressive\nBits/(Pixel*Frame)               : 0.140\nStream size                      : 824 MiB (90%)\nLanguage                         : English\nEncoded date                     : UTC 2011-01-28 06:47:28\nTagged date                      : UTC 2011-01-28 18:32:47\n\nAudio\nID                               : 2\nFormat                           : AAC\nFormat/Info                      : Advanced Audio Codec\nFormat version                   : Version 4\nFormat profile                   : LC\nFormat settings, SBR             : No\nCodec ID                         : 40\nDuration                         : 1h 39mn\nBit rate mode                    : Variable\nBit rate                         : 124 Kbps\nMaximum bit rate                 : 141 Kbps\nChannel(s)                       : 2 channels\nChannel positions                : L R\nSampling rate                    : 48.0 KHz\nResolution                       : 16 bits\nStream size                      : 88.2 MiB (10%)\nTitle                            : English\nLanguage                         : English\t\t\n\n","torrent":{"xt":"urn:btih:255e31dcae6cce83f7b42b192902bbf8c24046dd","amp;dn":"The+Woman+In+The+Window+%281944%29+Reuped+dvd+rip+Edward+G.+Robinson","amp;tr":["udp%3A%2F%2Ftracker.openbittorrent.com%3A80","udp%3A%2F%2Fopen.demonii.com%3A1337","udp%3A%2F%2Ftracker.coppersurfer.tk%3A6969","udp%3A%2F%2Fexodus.desync.com%3A6969"],"infoHash":"255e31dcae6cce83f7b42b192902bbf8c24046dd","infoHashBuffer":{"type":"Buffer","data":[37,94,49,220,174,108,206,131,247,180,43,25,41,2,187,248,194,64,70,221]},"announce":[],"urlList":[]}}